<?xml version="1.0" encoding="UTF-8" standalone="no"?>
<!-- Created with Inkscape (http://www.inkscape.org/) -->

<svg
   width="105.83332mm"
   height="105.83334mm"
   viewBox="0 0 105.83332 105.83334"
   version="1.1"
   id="svg5"
   xmlns="http://www.w3.org/2000/svg"
   xmlns:svg="http://www.w3.org/2000/svg">
  <defs
     id="defs2" />
  <g
     id="layer1"
     transform="translate(-39.386437,-67.936171)">
    <path
       id="use3588"
       style="fill:#6666ff;fill-opacity:1;stroke-width:0.715388"
       d="m 48.722301,67.936175 c -5.17194,0 -9.335865,4.16392 -9.335865,9.33586 v 87.162125 c 0,5.17194 4.163925,9.33535 9.335865,9.33535 h 87.161609 c 5.17193,0 9.33586,-4.16341 9.33586,-9.33535 V 77.272035 c 0,-5.17194 -4.16393,-9.33586 -9.33586,-9.33586 z m 3.361035,10.58333 h 80.439534 c 1.17086,0 2.11357,0.94271 2.11357,2.11356 v 80.439545 c 0,1.17085 -0.94271,2.11356 -2.11357,2.11356 H 52.083336 c -1.170852,0 -2.113566,-0.94271 -2.113566,-2.11356 V 80.633065 c 0,-1.17085 0.942714,-2.11356 2.113566,-2.11356 z m 6.144844,12.28297 V 127.84415 H 95.269844 V 90.802475 Z m 44.78435,0.39119 v 13.229165 h 22.98878 V 91.193665 Z m 0,23.130365 v 13.22918 h 22.98878 v -13.22918 z m -44.78435,24.38922 v 13.22917 h 68.14985 v -13.22917 z" />
  </g>
</svg>
