<?xml version="1.0" encoding="UTF-8" standalone="no"?>
<!-- Created with Inkscape (http://www.inkscape.org/) -->

<svg
   width="105.83332mm"
   height="105.83334mm"
   viewBox="0 0 105.83332 105.83334"
   version="1.1"
   id="svg5"
   xmlns="http://www.w3.org/2000/svg"
   xmlns:svg="http://www.w3.org/2000/svg">
  <defs
     id="defs2" />
  <g
     id="layer1"
     transform="translate(-54.425821,-84.893568)">
    <path
       id="rect8237"
       style="fill:#354047;fill-opacity:1;stroke-width:0.715388"
       d="m 63.761687,84.893567 c -5.17194,0 -9.335865,4.163925 -9.335865,9.335864 v 87.162119 c 0,5.17194 4.163925,9.33535 9.335865,9.33535 h 87.161603 c 5.17193,0 9.33586,-4.16341 9.33586,-9.33535 V 94.229431 c 0,-5.171939 -4.16393,-9.335864 -9.33586,-9.335864 z M 67.122722,95.4769 h 80.439528 c 1.17086,0 2.11357,0.942714 2.11357,2.113566 V 178.03 c 0,1.17085 -0.94271,2.11356 -2.11357,2.11356 H 67.122722 c -1.170852,0 -2.113566,-0.94271 -2.113566,-2.11356 V 97.590466 c 0,-1.170852 0.942714,-2.113566 2.113566,-2.113566 z m 6.144844,12.28297 v 37.04167 h 37.041664 v -37.04167 z m 44.784344,0.39119 v 13.22917 h 22.98878 v -13.22917 z m 0,23.13037 v 13.22917 h 22.98878 v -13.22917 z m -44.784344,24.38921 v 13.22917 h 68.149844 v -13.22917 z" />
  </g>
</svg>
